<svg width="300" height="290" viewBox="0 0 300 290" fill="none" xmlns="http://www.w3.org/2000/svg">
<rect width="300" height="289.35" fill="white"/>
<path fill-rule="evenodd" clip-rule="evenodd" d="M0.00019324 289.354H238.525H300L300 151.48H0L0.00019324 289.354ZM155.913 43.0523C152.387 43.0523 149.527 45.9127 149.527 49.4409V87.5428C149.527 87.5685 149.534 87.5909 149.534 87.6166C149.575 102.006 161.288 113.702 175.693 113.702C190.122 113.702 201.861 101.967 201.861 87.5428C201.861 73.1126 190.122 61.3794 175.693 61.3794C170.797 61.3794 166.225 62.7556 162.304 65.1042V49.4409C162.304 45.9127 159.447 43.0523 155.913 43.0523ZM175.693 74.1566C183.077 74.1566 189.077 80.1638 189.077 87.5429C189.077 94.9253 183.077 100.925 175.693 100.925C168.316 100.925 162.304 94.9252 162.304 87.5429C162.304 80.1638 168.316 74.1566 175.693 74.1566ZM215.003 61.4264C211.469 61.4264 208.612 64.2911 208.612 67.8161V89.6596C208.612 97.4063 209.702 108.251 219.115 112.992C222.266 114.575 226.109 113.304 227.696 110.154C229.278 106.997 228.008 103.161 224.857 101.575C224 101.146 221.39 99.8244 221.39 89.6597V67.8161C221.39 64.2911 218.533 61.4264 215.003 61.4264ZM215.006 43.078C211.119 43.078 207.975 46.2237 207.975 50.1088C207.975 53.9896 211.119 57.131 215.006 57.131C218.883 57.131 222.034 53.9896 222.034 50.1088C222.034 46.2237 218.883 43.078 215.006 43.078ZM247.949 124.044V109.945C251.87 112.295 256.441 113.669 261.334 113.669C275.759 113.669 287.495 101.936 287.495 87.5076C287.495 73.0827 275.759 61.3462 261.334 61.3462C246.908 61.3462 235.168 73.0827 235.168 87.5076V124.044C235.168 127.575 238.028 130.431 241.559 130.431C245.089 130.431 247.949 127.575 247.949 124.044ZM261.334 74.1245C268.711 74.1245 274.718 80.1274 274.718 87.5076C274.718 94.8878 268.711 100.891 261.334 100.891C253.949 100.891 247.949 94.8878 247.949 87.5076C247.949 80.1274 253.949 74.1245 261.334 74.1245ZM5.52114e-05 0V13.022H300V0H5.52114e-05Z" fill="url(#paint0_linear_1_38)"/>
<defs>
<linearGradient id="paint0_linear_1_38" x1="42" y1="175.879" x2="257.999" y2="175.879" gradientUnits="userSpaceOnUse">
<stop stop-color="#DA251D"/>
<stop offset="0.501961" stop-color="#89211B"/>
</linearGradient>
</defs>
</svg>
