<svg xmlns="http://www.w3.org/2000/svg" viewBox="0 0 115.74 137.98">
      <rect width="115.74" height="137.98" style="fill: none"/>
      <path d="M129,51.84c0,6.73,0,13.46,0,20.19a61.85,61.85,0,0,1-15,41A88.31,88.31,0,0,1,88.11,134c-4.66,2.52-9.56,4.6-14.38,6.79a6.65,6.65,0,0,1-5.47-.1,107.37,107.37,0,0,1-34.95-22.84c-9.16-9.08-15.77-19.7-18.6-32.45-1.29-5.81-1.36-11.71-1.36-17.62,0-13.59,0-27.19-.06-40.78a6.79,6.79,0,0,1,3.18-6.23,111.19,111.19,0,0,1,20-10.39A99.87,99.87,0,0,1,58.65,4.22a84.62,84.62,0,0,1,19-.59c13.89,1,26.79,5.29,39,11.73,3.24,1.7,6.31,3.72,9.44,5.61A6,6,0,0,1,129,26.53Q129,39.19,129,51.84Z" style="fill: #f1f1f2"/>
      <path d="M124.3,53.5q0,9.28,0,18.55a56.77,56.77,0,0,1-13.79,37.69A81,81,0,0,1,86.73,129c-4.28,2.31-8.78,4.22-13.21,6.24a6.17,6.17,0,0,1-5-.09,99,99,0,0,1-32.11-21C28,105.77,21.89,96,19.3,84.3,18.11,79,18.05,73.54,18,68.11c0-12.48,0-25-.05-37.46a6.27,6.27,0,0,1,2.93-5.73,102.49,102.49,0,0,1,18.32-9.54A91.85,91.85,0,0,1,59.67,9.76a77.93,77.93,0,0,1,17.47-.55C89.9,10.12,101.75,14.07,113,20c3,1.56,5.79,3.42,8.67,5.16a5.48,5.48,0,0,1,2.63,5.11Z" style="fill: #2d3f98"/>
      <path d="M124.3,72.05q0-9.27,0-18.55V30.26c0-.2,0-.4,0-.59C112.39,23,99.85,18.36,86.1,17.13A72,72,0,0,0,65,18.34,101.51,101.51,0,0,0,33,31.06a1.86,1.86,0,0,0-1,1.86c0,8.1,0,16.2,0,24.3,0,5.2-.11,10.41,0,15.6a96.86,96.86,0,0,0,.87,13.32c1.58,9.48,6,17.74,12.13,25.06,8.42,10,18.79,17.36,30.3,23.16,3.83-1.72,7.68-3.42,11.36-5.41a81,81,0,0,0,23.78-19.21A56.77,56.77,0,0,0,124.3,72.05Z" style="fill: #fff;stroke: #fff;stroke-miterlimit: 10"/>
      <path d="M32,57.22c0,5.2-.11,10.41,0,15.6a96.86,96.86,0,0,0,.87,13.32c1.58,9.48,6,17.74,12.13,25.06,9.35,11.11,21.1,19,34.16,25a2.1,2.1,0,0,0,1.52,0c1.85-.81,3.67-1.68,5.46-2.59,11.42-5.76,21.56-13.14,29.58-23.22a53.06,53.06,0,0,0,11.95-33.79c0-14.45,0-28.9,0-43.36a2.42,2.42,0,0,0-1.36-2.41C113.9,23.55,100.67,18.44,86.1,17.13A72,72,0,0,0,65,18.34,101.51,101.51,0,0,0,33,31.06a1.86,1.86,0,0,0-1,1.86C32.06,41,32,49.12,32,57.22Z" style="fill: none"/>
      <path d="M95.87,92.78h.35C95.5,85,95.1,77,94.88,68.72L71.15,22a73.8,73.8,0,0,0-11.07,1.27Z" style="fill: #397dbf"/>
      <path d="M104.55,26.16l0,4L109,32v74.47c-.81,5.49-4,7.85-5.58,10.52.45.27.91.53,1.38.77a68.62,68.62,0,0,0,8.73-9.15,51.59,51.59,0,0,0,6.77-10.44,20.07,20.07,0,0,0,1.46-7.93v-53a5.87,5.87,0,0,0-3.44-5.72A76.1,76.1,0,0,0,104.55,26.16Z" style="fill: #2d3f98"/>
      <path d="M61.78,59.61,55,44.55v68.26c4,3.5,8.41,6.58,8.41,6.58v-4.88l-1.68-1.86Z" style="fill: #418dcb"/>
</svg>
